<svg width="793" height="202" viewBox="0 0 793 202" fill="none" xmlns="http://www.w3.org/2000/svg">
<path fill-rule="evenodd" clip-rule="evenodd" d="M452.853 129.723C451.424 137.919 453.745 141.688 458.387 141.688C462.761 141.688 468.653 137.26 471.956 129.817C473.652 129.817 474.812 130.948 474.455 133.397C473.116 140.651 463.832 153.652 451.246 153.652C442.676 153.652 436.784 147.999 436.07 138.202C430.804 148.282 423.662 153.652 416.253 153.652C405.63 153.652 397.239 146.115 397.239 130.1C397.239 99.5769 414.021 85.2574 429.197 85.2574C435.713 85.2574 440.266 87.9894 443.212 91.9461C445.265 87.0474 448.568 85.2574 454.906 85.2574C459.28 85.2574 461.333 86.5763 461.333 86.5763C461.333 86.5763 459.637 89.1199 458.387 96.4681L452.853 129.723ZM439.998 107.585L441.159 101.178C439.998 98.4464 437.588 94.5839 432.589 94.5839C423.841 94.5839 413.843 108.338 413.843 130.383C413.843 138.108 416.699 141.782 421.52 141.782C430.714 141.782 437.588 121.245 439.998 107.585Z" fill="#F5A93A"/>
<path d="M491.148 146.586L485.614 143.195L495.969 124.542L501.592 127.933L491.148 146.586Z" fill="#73BC9A" stroke="#009640" stroke-width="0.5"/>
<path d="M499.093 149.318L493.469 146.398L502.396 126.991L508.109 129.817L499.093 149.318Z" fill="#EC6262" stroke="#E30613" stroke-width="0.5"/>
<path d="M508.466 149.318L502.039 147.151L508.377 126.614L514.804 128.781L508.466 149.318Z" fill="#F39D7A" stroke="#FCEA10" stroke-width="0.5"/>
<path d="M516.054 105.324C527.48 112.577 531.586 120.397 531.586 130.477C531.586 145.644 521.053 158.645 498.29 158.645C478.204 158.645 469.724 146.021 469.724 136.035C469.724 128.781 474.634 124.636 480.079 124.636C485.435 124.636 487.578 127.274 487.578 127.274C487.578 127.274 486.863 129.346 486.863 132.832C486.863 142.159 490.88 148.847 499.807 149.036C508.823 149.036 513.019 143.289 513.019 136.977C513.019 132.455 510.966 128.593 505.342 125.013L489.988 115.027C482.4 110.034 476.33 103.91 476.33 91.1925C476.33 75.6483 487.31 63.0245 509.537 63.0245C528.997 63.0245 538.103 75.6483 538.103 85.6342C538.103 92.8882 533.282 97.0333 527.748 97.0333C522.481 97.0333 520.249 94.3955 520.249 94.3955C520.249 94.3955 521.053 92.323 521.053 88.8373C521.053 79.8876 516.5 72.6337 507.663 72.6337C499.093 72.6337 494.808 78.0035 494.808 84.6922C494.808 90.1562 497.308 93.4534 502.485 96.6565L516.054 105.324Z" fill="#00A7DC"/>
<path d="M471.331 124.73V120.208H488.47V124.73H471.331Z" fill="#F39D7A" stroke="#FCEA10" stroke-width="0.5"/>
<path d="M471.331 119.643V115.404H488.47V119.643H471.331Z" fill="#EC6262" stroke="#E30613" stroke-width="0.5"/>
<path d="M25.0841 72.8221C25.0841 78.4745 28.2084 83.9385 34.1893 87.6126L50.6145 97.6927C61.6836 104.57 65.7899 112.672 65.7899 122.187C65.7899 137.448 53.114 151.202 29.5474 151.202C11.7833 151.202 0 141.876 0 129.158C0 119.36 5.1775 114.933 11.3369 114.933C17.5856 114.933 19.2817 118.513 19.2817 118.513C19.2817 118.513 14.7291 122.94 14.7291 129.912C14.7291 138.108 20.3529 143.666 30.2616 143.666C41.9556 143.666 49.1862 136.129 49.1862 127.274C49.1862 120.397 45.9726 115.498 37.3137 110.316L23.388 102.026C12.4974 95.4318 8.48039 87.6126 8.48039 77.815C8.48039 62.5535 20.71 48.6108 43.2946 48.6108C61.6836 48.6108 74.0025 58.3142 74.0025 71.88C74.0025 81.4891 69.1821 87.0473 61.2373 87.0473C55.0779 87.0473 52.6677 83.5617 52.6677 83.5617C52.6677 83.5617 59.1842 79.6992 59.1842 69.7132C59.1842 62.0825 54.0959 56.1474 43.1161 56.1474C32.4933 56.1474 25.0841 62.8361 25.0841 72.8221V72.8221Z" fill="#F5A93A"/>
<path d="M142.024 140.651C140.596 149.224 141.935 152.427 141.935 152.427C141.935 152.427 139.971 153.652 135.151 153.652C125.153 153.652 123.992 149.695 125.599 140.086L139.971 53.1328C141.399 44.4657 140.06 41.3569 140.06 41.3569C140.06 41.3569 142.024 40.1322 146.845 40.1322C156.753 40.1322 158.003 44.0889 156.396 53.698L145.773 117.759H150.951C154.432 117.759 157.2 113.331 158.717 110.034L163.805 99.1059C168.983 87.9894 173.089 85.2574 178.713 85.2574C183.98 85.2574 187.104 88.9315 187.104 94.5839C187.104 100.613 182.551 104.005 182.551 104.005C182.551 104.005 181.391 99.1059 176.392 99.1059C172.464 99.1059 169.608 101.932 167.287 107.302L165.055 112.201C164.073 114.65 162.466 116.817 160.592 118.324C165.323 119.549 167.912 122.846 169.34 127.274L170.768 131.984C172.643 138.202 175.232 141.687 180.498 141.687C186.122 141.687 191.567 136.129 194.335 129.817C196.031 129.817 197.191 130.948 196.834 133.397C195.674 140.651 185.854 153.652 173.625 153.652C164.966 153.652 158.717 148.565 155.593 137.637L153.54 130.383C152.379 126.52 150.862 124.542 147.291 124.542H144.613L142.024 140.651Z" fill="#F5A93A"/>
<path d="M227.453 115.498C236.915 120.679 240.218 126.238 240.218 133.491C240.218 144.325 231.559 153.652 212.813 153.652C196.209 153.652 189.157 144.608 189.157 137.448C189.157 132.267 193.174 129.252 197.727 129.252C202.19 129.252 203.976 131.231 203.976 131.231C203.976 131.231 203.351 132.738 203.351 135.187C203.351 141.876 206.654 146.68 214.063 146.775C221.472 146.775 224.953 142.724 224.953 138.202C224.953 134.905 223.257 132.173 218.615 129.535L205.939 122.469C199.691 118.889 194.603 114.556 194.603 105.324C194.603 94.3013 203.708 85.2574 222.097 85.2574C238.165 85.2574 245.663 94.3013 245.663 101.367C245.663 106.548 241.646 109.563 237.183 109.563C232.72 109.563 230.934 107.679 230.934 107.679C230.934 107.679 231.559 106.171 231.559 103.722C231.559 97.3159 227.81 92.1346 220.579 92.1346C213.438 92.1346 209.957 95.9028 209.957 100.707C209.957 104.664 212.01 107.019 216.294 109.28L227.453 115.498Z" fill="#F5A93A"/>
<path d="M327.254 129.817C328.95 129.817 330.11 130.948 329.664 133.397C328.414 140.651 318.952 153.652 306.901 153.652C297.171 153.652 291.19 146.775 291.19 136.506C291.19 133.02 292.082 127.651 293.153 120.962L295.564 105.889C296.635 99.2943 295.296 97.3159 292.529 97.3159C284.316 97.3159 271.908 117.665 267.98 140.651C266.552 149.224 267.891 152.427 267.891 152.427C267.891 152.427 265.927 153.652 261.107 153.652C251.109 153.652 249.948 149.695 251.555 140.086L265.927 53.1328C267.355 44.4657 266.016 41.3569 266.016 41.3569C266.016 41.3569 267.98 40.1322 272.801 40.1322C282.799 40.1322 283.959 44.0889 282.352 53.698L273.872 105.041C278.871 96.1854 288.601 85.2574 299.224 85.2574C307.436 85.2574 312.614 90.8156 312.614 99.2943C312.614 102.309 312.078 106.266 311.453 110.411L308.329 129.723C306.99 137.354 308.686 141.687 313.596 141.687C318.684 141.687 323.504 137.731 327.254 129.817V129.817Z" fill="#F5A93A"/>
<path fill-rule="evenodd" clip-rule="evenodd" d="M378.672 142.159C378.672 142.159 392.062 136.506 399.828 129.817C401.524 129.817 402.684 131.042 402.238 133.02C401.97 134.339 400.542 135.847 397.953 137.919C393.222 141.687 385.009 146.492 377.422 150.449L377.154 152.144C372.066 183.892 360.015 201.509 340.822 201.509C331.985 201.509 326.361 195.574 326.361 187.095C326.361 179.088 330.824 171.645 337.252 165.899C343.679 160.058 350.463 155.913 360.907 150.449L363.675 132.832C361.979 136.223 360.104 139.238 358.319 141.97C352.873 149.789 347.16 153.652 340.019 153.652C331.36 153.652 325.915 147.246 325.915 137.731C325.915 132.738 326.361 128.027 327.521 120.962L331.271 98.258C332.699 89.591 331.36 86.4821 331.36 86.4821C331.36 86.4821 333.324 85.2574 338.144 85.2574C348.053 85.2574 349.303 89.2141 347.696 98.8233L342.518 130.383C341.179 138.296 343.054 141.687 346.803 141.687C349.66 141.687 353.052 138.013 356.355 132.549C361.443 124.353 366.62 111.918 369.209 98.258C370.727 89.591 369.388 86.4821 369.388 86.4821C369.388 86.4821 371.262 85.2574 376.083 85.2574C386.081 85.2574 387.241 89.2141 385.634 98.8233L378.672 142.159ZM359.568 159.116C350.999 163.732 345.107 167.689 341.269 171.645C336.18 176.827 333.592 181.537 333.592 186.342C333.592 189.827 335.555 192.465 339.572 192.465C348.767 192.465 355.73 180.972 359.568 159.116V159.116Z" fill="#F5A93A"/>
<path d="M101.586 26.2838C101.408 28.4505 102.747 30.3347 104.71 30.6173C106.764 30.8999 108.549 29.3926 108.817 27.3201C108.995 25.4359 107.924 23.7402 106.317 23.1749L106.049 22.7981L108.727 0.471036L109.085 0.188411L109.352 0.471036L117.029 32.313L116.94 32.5957L110.334 45.502L109.977 45.5962L97.1227 43.9005L96.8549 43.7121L92.4808 29.2984V29.0158L107.478 0.188411L107.835 0L108.013 0.376823L105.335 22.7039L105.068 22.9865C103.282 23.0807 101.854 24.4938 101.586 26.2838V26.2838Z" fill="#5A6E7F"/>
<path d="M88.1067 168.819C80.7868 167.877 80.6083 119.455 84.4468 83.5617L111.852 87.2358C107.031 122.94 95.3374 169.855 88.1067 168.819Z" fill="#00A7DC"/>
<path d="M113.816 66.6044L87.3926 63.0246C91.4096 43.4295 96.4978 45.7847 102.836 46.6325C109.085 47.4804 114.619 46.5383 113.816 66.6044V66.6044Z" fill="#00A7DC"/>
<path d="M113.816 66.6044C113.756 68.8654 113.607 71.409 113.369 74.2352L86.0536 70.5611C86.4702 67.7349 86.9165 65.2227 87.3926 63.0245L113.816 66.6044Z" fill="#00A7DC"/>
<path d="M112.477 82.337C112.298 83.9072 112.09 85.5401 111.852 87.2358L84.4468 83.5617C84.6253 81.866 84.8038 80.2017 84.9824 78.5688C85.3394 75.6483 85.6965 73.0105 86.0536 70.5612L113.369 74.2352C113.191 76.6846 112.834 79.3224 112.477 82.337V82.337Z" fill="#5A6E7F"/>
<path d="M612.016 133.02C613.712 133.02 614.873 134.057 614.426 136.506C613.176 143.572 603.893 156.29 592.109 156.29C582.647 156.29 576.755 149.601 576.755 139.615C576.755 136.129 577.648 130.854 578.719 124.353L581.13 109.563C582.111 103.157 580.862 101.178 578.094 101.178C570.06 101.178 557.831 121.15 554.082 143.572C552.653 152.05 553.903 155.159 553.903 155.159C553.903 155.159 552.028 156.29 547.387 156.29C537.567 156.29 536.407 152.427 537.924 143.101L552.028 57.9373C553.457 49.4587 552.207 46.3498 552.207 46.3498C552.207 46.3498 554.082 45.2194 558.724 45.2194C568.543 45.2194 569.703 49.0819 568.186 58.4084L559.795 108.809C564.704 100.048 574.256 89.4025 584.611 89.4025C592.645 89.4025 597.733 94.8665 597.733 103.157C597.733 106.077 597.198 110.034 596.573 113.991L593.538 132.926C592.288 140.369 593.895 144.702 598.715 144.702C603.714 144.702 608.356 140.84 612.016 133.02V133.02Z" fill="#00A7DC"/>
<path fill-rule="evenodd" clip-rule="evenodd" d="M666.38 132.926C664.951 140.934 667.272 144.702 671.825 144.702C676.199 144.702 681.823 140.274 685.126 133.02C686.822 133.02 687.982 134.057 687.536 136.506C686.286 143.572 677.181 156.29 664.862 156.29C656.471 156.29 650.669 150.826 650.044 141.217C644.777 151.108 637.814 156.29 630.584 156.29C620.229 156.29 611.927 148.941 611.927 133.303C611.927 103.439 628.441 89.4026 643.26 89.4026C649.597 89.4026 654.061 92.0404 657.007 95.9029C659.06 91.0983 662.184 89.4026 668.433 89.4026C672.718 89.4026 674.771 90.7215 674.771 90.7215C674.771 90.7215 673.075 93.0767 671.825 100.331L666.38 132.926ZM653.793 111.259L654.954 104.947C653.793 102.309 651.383 98.5407 646.562 98.5407C637.993 98.5407 628.173 112.107 628.173 133.586C628.173 141.122 631.03 144.702 635.672 144.702C644.688 144.702 651.383 124.636 653.793 111.259V111.259Z" fill="#00A7DC"/>
<path d="M696.552 57.9373C697.98 49.4587 696.731 46.3498 696.731 46.3498C696.731 46.3498 698.605 45.2194 703.336 45.2194C713.067 45.2194 714.227 49.0819 712.709 58.4084L700.301 132.926C698.962 140.84 701.194 144.702 705.747 144.702C710.835 144.702 716.548 140.274 719.851 133.02C721.458 133.02 722.618 134.057 722.261 136.506C720.922 143.572 711.013 156.29 698.784 156.29C689.946 156.29 683.876 150.26 683.876 139.615C683.876 136.883 684.144 132.267 685.037 126.897L696.552 57.9373Z" fill="#00A7DC"/>
<path fill-rule="evenodd" clip-rule="evenodd" d="M771.715 132.926C770.287 140.934 772.608 144.702 777.16 144.702C781.445 144.702 787.158 140.274 790.461 133.02C792.157 133.02 793.318 134.057 792.871 136.506C791.622 143.572 782.516 156.29 770.198 156.29C761.806 156.29 756.004 150.826 755.379 141.217C750.112 151.108 743.15 156.29 735.919 156.29C725.564 156.29 717.262 148.941 717.262 133.303C717.262 103.439 733.776 89.4026 748.595 89.4026C754.933 89.4026 759.396 92.0404 762.342 95.9029C764.395 91.0983 767.52 89.4026 773.768 89.4026C778.053 89.4026 780.106 90.7215 780.106 90.7215C780.106 90.7215 778.41 93.0767 777.16 100.331L771.715 132.926ZM759.128 111.259L760.289 104.947C759.128 102.309 756.718 98.5407 751.898 98.5407C743.328 98.5407 733.509 112.107 733.509 133.586C733.509 141.122 736.276 144.702 741.007 144.702C750.023 144.702 756.718 124.636 759.128 111.259V111.259Z" fill="#00A7DC"/>
</svg>